<svg data-v-fde0c5aa="" xmlns="http://www.w3.org/2000/svg" viewBox="0 0 300 300" class="iconLeft"><!----><defs data-v-fde0c5aa=""><!----></defs><rect data-v-fde0c5aa="" fill="transparent" x="0" y="0" width="300px" height="300px" class="logo-background-square"></rect><defs data-v-fde0c5aa=""><!----></defs><g data-v-fde0c5aa="" id="3fc551e2-b595-4622-bf72-5e1a6eb87c4c" fill="#000000" transform="matrix(1.276145833812004,0,0,1.276145833812004,72.27894705518635,138.36793040837645)"><path d="M2.06 12.67L0.24 5.50L1.52 5.50L2.79 11.12L4.66 5.50L5.80 5.50L7.79 11.12L8.94 5.50L10.28 5.50L8.41 12.67L7.25 12.67L5.20 7.31L3.24 12.67L2.06 12.67ZM12.58 12.67L10.76 5.50L12.04 5.50L13.31 11.12L15.18 5.50L16.32 5.50L18.31 11.12L19.46 5.50L20.80 5.50L18.93 12.67L17.77 12.67L15.72 7.31L13.76 12.67L12.58 12.67ZM23.10 12.67L21.28 5.50L22.56 5.50L23.83 11.12L25.70 5.50L26.84 5.50L28.83 11.12L29.98 5.50L31.32 5.50L29.45 12.67L28.29 12.67L26.24 7.31L24.28 12.67L23.10 12.67ZM32.25 11.41L33.51 11.41L33.51 12.67L32.25 12.67L32.25 11.41ZM36.93 12.67L34.19 5.50L35.56 5.50L37.62 11.12L39.66 5.50L41.03 5.50L38.11 12.67L36.93 12.67ZM45.01 5.50L45.01 5.50Q48.08 5.50 48.08 8.52L48.08 8.52Q48.08 8.96 48.02 9.45L48.02 9.45L42.98 9.45Q42.98 11.65 45.55 11.65L45.55 11.65Q46.77 11.65 47.72 11.38L47.72 11.38L47.72 12.40Q46.77 12.67 45.41 12.67L45.41 12.67Q41.71 12.67 41.71 9.00L41.71 9.00Q41.71 5.50 45.01 5.50ZM42.98 8.39L42.98 8.39L46.86 8.39Q46.82 6.51 45.01 6.51L45.01 6.51Q43.10 6.51 42.98 8.39ZM49.85 2.90L51.11 2.90L51.11 12.67L49.85 12.67L49.85 2.90ZM54.15 9.06Q54.15 11.65 56.31 11.65L56.31 11.65Q58.46 11.65 58.46 9.06L58.46 9.06Q58.46 6.52 56.31 6.52L56.31 6.52Q54.15 6.52 54.15 9.06L54.15 9.06ZM52.89 9.08L52.89 9.08Q52.89 5.50 56.31 5.50L56.31 5.50Q59.73 5.50 59.73 9.08L59.73 9.08Q59.73 12.67 56.31 12.67L56.31 12.67Q52.90 12.67 52.89 9.08ZM66.83 11.44L66.83 12.47Q65.95 12.67 64.92 12.67L64.92 12.67Q61.09 12.67 61.09 8.95L61.09 8.95Q61.09 5.50 64.92 5.50L64.92 5.50Q65.95 5.50 66.83 5.70L66.83 5.70L66.83 6.73Q65.95 6.52 64.85 6.52L64.85 6.52Q62.36 6.52 62.36 8.95L62.36 8.95Q62.36 11.65 64.85 11.65L64.85 11.65Q65.95 11.65 66.83 11.44L66.83 11.44ZM68.58 5.50L69.84 5.50L69.84 12.67L68.58 12.67L68.58 5.50ZM68.58 2.90L69.84 2.90L69.84 4.09L68.58 4.09L68.58 2.90ZM72.03 10.74L72.03 4.33L72.82 4.33L73.10 5.50L75.04 5.50L75.04 6.52L73.29 6.52L73.29 10.64Q73.29 11.65 74.16 11.65L74.16 11.65L75.04 11.65L75.04 12.67L73.83 12.67Q72.03 12.67 72.03 10.74L72.03 10.74ZM78.54 12.71L75.79 5.50L77.16 5.50L79.19 11.10L81.29 5.50L82.63 5.50L79.65 12.89Q78.86 14.84 77.27 15.33L77.27 15.33L76.79 14.43Q77.99 13.90 78.54 12.71L78.54 12.71ZM89.22 11.44L89.22 12.47Q88.33 12.67 87.31 12.67L87.31 12.67Q83.48 12.67 83.48 8.95L83.48 8.95Q83.48 5.50 87.31 5.50L87.31 5.50Q88.33 5.50 89.22 5.70L89.22 5.70L89.22 6.73Q88.33 6.52 87.24 6.52L87.24 6.52Q84.75 6.52 84.75 8.95L84.75 8.95Q84.75 11.65 87.24 11.65L87.24 11.65Q88.33 11.65 89.22 11.44L89.22 11.44ZM92.09 12.67L90.83 12.67L90.83 5.50L91.68 5.50L91.91 6.41Q92.85 5.50 94.18 5.50L94.18 5.50L94.18 6.55Q92.89 6.55 92.09 7.46L92.09 7.46L92.09 12.67ZM97.34 12.71L94.59 5.50L95.96 5.50L97.99 11.10L100.09 5.50L101.43 5.50L98.45 12.89Q97.66 14.84 96.07 15.33L96.07 15.33L95.59 14.43Q96.79 13.90 97.34 12.71L97.34 12.71ZM103.89 6.71L103.89 11.21Q104.63 11.58 105.55 11.58L105.55 11.58Q107.78 11.58 107.78 8.89L107.78 8.89Q107.78 6.55 105.56 6.55L105.56 6.55Q104.60 6.55 103.89 6.71L103.89 6.71ZM102.62 15.27L102.62 5.79Q104.05 5.50 105.57 5.50L105.57 5.50Q109.03 5.50 109.03 8.91L109.03 8.91Q109.03 12.67 105.55 12.67L105.55 12.67Q104.69 12.67 103.89 12.33L103.89 12.33L103.89 15.27L102.62 15.27ZM110.74 10.74L110.74 4.33L111.53 4.33L111.80 5.50L113.74 5.50L113.74 6.52L112 6.52L112 10.64Q112 11.65 112.87 11.65L112.87 11.65L113.74 11.65L113.74 12.67L112.54 12.67Q110.74 12.67 110.74 10.74L110.74 10.74ZM116.27 9.06Q116.27 11.65 118.43 11.65L118.43 11.65Q120.58 11.65 120.58 9.06L120.58 9.06Q120.58 6.52 118.43 6.52L118.43 6.52Q116.27 6.52 116.27 9.06L116.27 9.06ZM115.01 9.08L115.01 9.08Q115.01 5.50 118.43 5.50L118.43 5.50Q121.84 5.50 121.84 9.08L121.84 9.08Q121.84 12.67 118.43 12.67L118.43 12.67Q115.02 12.67 115.01 9.08ZM123.21 11.41L124.48 11.41L124.48 12.67L123.21 12.67L123.21 11.41ZM129.14 5.50L129.14 5.50Q132.21 5.50 132.21 8.52L132.21 8.52Q132.21 8.96 132.15 9.45L132.15 9.45L127.11 9.45Q127.11 11.65 129.68 11.65L129.68 11.65Q130.90 11.65 131.85 11.38L131.85 11.38L131.85 12.40Q130.90 12.67 129.54 12.67L129.54 12.67Q125.84 12.67 125.84 9.00L125.84 9.00Q125.84 5.50 129.14 5.50ZM127.11 8.39L127.11 8.39L130.99 8.39Q130.95 6.51 129.14 6.51L129.14 6.51Q127.23 6.51 127.11 8.39ZM139.31 11.44L139.31 12.47Q138.42 12.67 137.40 12.67L137.40 12.67Q133.57 12.67 133.57 8.95L133.57 8.95Q133.57 5.50 137.40 5.50L137.40 5.50Q138.42 5.50 139.31 5.70L139.31 5.70L139.31 6.73Q138.42 6.52 137.33 6.52L137.33 6.52Q134.83 6.52 134.83 8.95L134.83 8.95Q134.83 11.65 137.33 11.65L137.33 11.65Q138.42 11.65 139.31 11.44L139.31 11.44ZM142.18 12.67L140.92 12.67L140.92 2.90L142.18 2.90L142.18 6.28Q143.10 5.50 144.42 5.50L144.42 5.50Q147.10 5.50 147.10 8.17L147.10 8.17L147.10 12.67L145.84 12.67L145.84 8.15Q145.84 6.55 144.25 6.55L144.25 6.55Q143.16 6.55 142.18 7.46L142.18 7.46L142.18 12.67Z"></path></g><defs data-v-fde0c5aa=""><linearGradient data-v-fde0c5aa="" gradientTransform="rotate(25)" id="19161f20-c895-46ae-8abb-b2c4f31caa3f" x1="0%" y1="0%" x2="100%" y2="0%"><stop data-v-fde0c5aa="" offset="0%" stop-color="#920DE9" stop-opacity="1"></stop><stop data-v-fde0c5aa="" offset="100%" stop-color="#1536F1" stop-opacity="1"></stop></linearGradient></defs><g data-v-fde0c5aa="" id="69948e1b-165b-4155-abfe-992f1a34d9f6" stroke="none" fill="url(#19161f20-c895-46ae-8abb-b2c4f31caa3f)" transform="matrix(0.743554364237438,0,0,0.743554364237438,37.895741205936744,138.103130172201)"><path d="M2.83 18.247l26.34-9.124L2.83 0zM29.17 32V13.753L2.83 22.877z"></path></g><!----></svg>